<?xml version="1.0" encoding="UTF-8" standalone="no"?>
<!-- Created with Inkscape (http://www.inkscape.org/) -->

<svg
   width="90mm"
   height="86.800003mm"
   viewBox="0 0 90 86.800003"
   version="1.1"
   id="svg1"
   inkscape:version="1.3.2 (091e20e, 2023-11-25, custom)"
   sodipodi:docname="EWROMPCB.svg"
   xml:space="preserve"
   xmlns:inkscape="http://www.inkscape.org/namespaces/inkscape"
   xmlns:sodipodi="http://sodipodi.sourceforge.net/DTD/sodipodi-0.dtd"
   xmlns="http://www.w3.org/2000/svg"
   xmlns:svg="http://www.w3.org/2000/svg"
   xmlns:rdf="http://www.w3.org/1999/02/22-rdf-syntax-ns#"
   xmlns:cc="http://creativecommons.org/ns#"
   xmlns:dc="http://purl.org/dc/elements/1.1/"><title
     id="title14">FamiCart</title><sodipodi:namedview
     id="namedview1"
     pagecolor="#878787"
     bordercolor="#000000"
     borderopacity="0.25"
     inkscape:showpageshadow="2"
     inkscape:pageopacity="0.0"
     inkscape:pagecheckerboard="0"
     inkscape:deskcolor="#d1d1d1"
     inkscape:document-units="mm"
     inkscape:zoom="1.7091091"
     inkscape:cx="204.4925"
     inkscape:cy="179.04065"
     inkscape:window-width="1920"
     inkscape:window-height="1009"
     inkscape:window-x="-4"
     inkscape:window-y="-4"
     inkscape:window-maximized="1"
     inkscape:current-layer="silkscreen"
     showguides="true" /><defs
     id="defs1" /><g
     inkscape:groupmode="layer"
     id="layer1"
     inkscape:label="layer1"
     style="display:inline"><g
       inkscape:groupmode="layer"
       id="board"
       inkscape:label="board"
       style="display:inline"
       transform="translate(-24.870833,26.9875)"><path
         id="boardoutline"
         style="display:inline;fill:#507f50;fill-opacity:1;fill-rule:evenodd;stroke:none;stroke-width:0.1;stroke-linecap:square;stroke-miterlimit:0;stroke-opacity:1;paint-order:markers stroke fill"
         inkscape:label="mainbord"
         d="M 24.870833 -26.9875 L 24.870833 3.0122192 L 24.870833 23.912236 L 29.370817 23.912236 L 29.370817 25.912113 L 24.870833 25.912113 L 24.870833 43.803011 A 4.2417922 4.214426 0 0 1 26.786478 47.229675 A 4.2417922 4.214426 0 0 1 26.330692 49.112248 L 30.670996 49.112248 L 30.670996 59.81237 L 109.07086 59.81237 L 109.07086 49.112248 L 113.43959 49.112248 A 4.2417922 4.214426 0 0 1 112.93574 47.230192 A 4.2417922 4.214426 0 0 1 114.87102 43.790609 L 114.87102 25.912113 L 110.37104 25.912113 L 110.37104 23.912236 L 114.87102 23.912236 L 114.87102 3.0122192 L 114.87102 -26.9875 L 24.870833 -26.9875 z M 72.370776 23.912236 L 77.370988 23.912236 L 77.370988 25.912113 L 72.370776 25.912113 L 72.370776 23.912236 z " /><path
         style="display:inline;fill:#beb488;fill-opacity:1;fill-rule:evenodd;stroke:#ffffff;stroke-width:0.206864;stroke-linecap:square;stroke-miterlimit:0;stroke-dasharray:none;paint-order:markers stroke fill"
         d="m 31.000907,54.461189 v -5.035418 h 38.860292 38.860291 v 5.035418 5.035418 H 69.861199 31.000907 Z"
         id="path1" /></g><g
       inkscape:groupmode="layer"
       id="silkscreen"
       inkscape:label="silkscreen"
       style="display:inline"
       transform="translate(19.314583,14.022917)" /></g><metadata
     id="metadata14"><rdf:RDF><cc:Work
         rdf:about=""><dc:title>FamiCart</dc:title></cc:Work></rdf:RDF></metadata></svg>
