G04 MADE WITH FRITZING*
G04 WWW.FRITZING.ORG*
G04 DOUBLE SIDED*
G04 HOLES PLATED*
G04 CONTOUR ON CENTER OF CONTOUR VECTOR*
%ASAXBY*%
%FSLAX23Y23*%
%MOIN*%
%OFA0B0*%
%SFA1.0B1.0*%
%ADD10C,0.010000*%
%ADD11C,0.005000*%
%ADD12R,0.001000X0.001000*%
%LNSILK1*%
G90*
G70*
G54D10*
X171Y2086D02*
X3371Y2086D01*
D02*
X3371Y2086D02*
X3371Y2186D01*
D02*
X3371Y2186D02*
X171Y2186D01*
D02*
X171Y2186D02*
X171Y2086D01*
G54D11*
D02*
X206Y2086D02*
X171Y2121D01*
G54D12*
X307Y387D02*
X310Y387D01*
X333Y387D02*
X361Y387D01*
X306Y386D02*
X311Y386D01*
X332Y386D02*
X362Y386D01*
X306Y385D02*
X311Y385D01*
X331Y385D02*
X363Y385D01*
X305Y384D02*
X311Y384D01*
X331Y384D02*
X364Y384D01*
X305Y383D02*
X311Y383D01*
X332Y383D02*
X364Y383D01*
X305Y382D02*
X311Y382D01*
X332Y382D02*
X365Y382D01*
X305Y381D02*
X311Y381D01*
X333Y381D02*
X365Y381D01*
X305Y380D02*
X311Y380D01*
X359Y380D02*
X365Y380D01*
X305Y379D02*
X311Y379D01*
X359Y379D02*
X365Y379D01*
X305Y378D02*
X311Y378D01*
X359Y378D02*
X365Y378D01*
X305Y377D02*
X311Y377D01*
X359Y377D02*
X365Y377D01*
X305Y376D02*
X311Y376D01*
X359Y376D02*
X365Y376D01*
X305Y375D02*
X311Y375D01*
X359Y375D02*
X365Y375D01*
X305Y374D02*
X311Y374D01*
X359Y374D02*
X365Y374D01*
X305Y373D02*
X311Y373D01*
X359Y373D02*
X365Y373D01*
X305Y372D02*
X311Y372D01*
X359Y372D02*
X365Y372D01*
X305Y371D02*
X311Y371D01*
X359Y371D02*
X365Y371D01*
X305Y370D02*
X311Y370D01*
X359Y370D02*
X365Y370D01*
X305Y369D02*
X311Y369D01*
X359Y369D02*
X365Y369D01*
X305Y368D02*
X311Y368D01*
X359Y368D02*
X365Y368D01*
X305Y367D02*
X311Y367D01*
X359Y367D02*
X365Y367D01*
X305Y366D02*
X311Y366D01*
X359Y366D02*
X365Y366D01*
X305Y365D02*
X311Y365D01*
X359Y365D02*
X365Y365D01*
X305Y364D02*
X311Y364D01*
X358Y364D02*
X365Y364D01*
X305Y363D02*
X311Y363D01*
X335Y363D02*
X365Y363D01*
X305Y362D02*
X311Y362D01*
X334Y362D02*
X365Y362D01*
X305Y361D02*
X311Y361D01*
X333Y361D02*
X364Y361D01*
X305Y360D02*
X311Y360D01*
X332Y360D02*
X364Y360D01*
X305Y359D02*
X311Y359D01*
X332Y359D02*
X363Y359D01*
X287Y358D02*
X288Y358D01*
X305Y358D02*
X311Y358D01*
X331Y358D02*
X361Y358D01*
X286Y357D02*
X290Y357D01*
X305Y357D02*
X311Y357D01*
X331Y357D02*
X338Y357D01*
X285Y356D02*
X290Y356D01*
X305Y356D02*
X311Y356D01*
X331Y356D02*
X337Y356D01*
X285Y355D02*
X291Y355D01*
X305Y355D02*
X311Y355D01*
X331Y355D02*
X337Y355D01*
X285Y354D02*
X291Y354D01*
X305Y354D02*
X311Y354D01*
X331Y354D02*
X337Y354D01*
X285Y353D02*
X291Y353D01*
X305Y353D02*
X311Y353D01*
X331Y353D02*
X337Y353D01*
X285Y352D02*
X291Y352D01*
X305Y352D02*
X311Y352D01*
X331Y352D02*
X337Y352D01*
X285Y351D02*
X291Y351D01*
X305Y351D02*
X311Y351D01*
X331Y351D02*
X337Y351D01*
X285Y350D02*
X291Y350D01*
X305Y350D02*
X311Y350D01*
X331Y350D02*
X337Y350D01*
X285Y349D02*
X291Y349D01*
X305Y349D02*
X311Y349D01*
X331Y349D02*
X337Y349D01*
X285Y348D02*
X291Y348D01*
X305Y348D02*
X311Y348D01*
X331Y348D02*
X337Y348D01*
X285Y347D02*
X291Y347D01*
X305Y347D02*
X311Y347D01*
X331Y347D02*
X337Y347D01*
X285Y346D02*
X291Y346D01*
X305Y346D02*
X311Y346D01*
X331Y346D02*
X337Y346D01*
X285Y345D02*
X291Y345D01*
X305Y345D02*
X311Y345D01*
X331Y345D02*
X337Y345D01*
X285Y344D02*
X291Y344D01*
X305Y344D02*
X311Y344D01*
X331Y344D02*
X337Y344D01*
X285Y343D02*
X291Y343D01*
X305Y343D02*
X311Y343D01*
X331Y343D02*
X337Y343D01*
X285Y342D02*
X291Y342D01*
X305Y342D02*
X311Y342D01*
X331Y342D02*
X337Y342D01*
X285Y341D02*
X292Y341D01*
X304Y341D02*
X311Y341D01*
X331Y341D02*
X337Y341D01*
X286Y340D02*
X311Y340D01*
X331Y340D02*
X363Y340D01*
X286Y339D02*
X310Y339D01*
X331Y339D02*
X364Y339D01*
X287Y338D02*
X310Y338D01*
X331Y338D02*
X365Y338D01*
X287Y337D02*
X309Y337D01*
X331Y337D02*
X365Y337D01*
X288Y336D02*
X308Y336D01*
X331Y336D02*
X365Y336D01*
X290Y335D02*
X306Y335D01*
X331Y335D02*
X364Y335D01*
X292Y334D02*
X304Y334D01*
X331Y334D02*
X363Y334D01*
X245Y193D02*
X290Y193D01*
X352Y193D02*
X390Y193D01*
X452Y193D02*
X490Y193D01*
X552Y193D02*
X590Y193D01*
X652Y193D02*
X690Y193D01*
X752Y193D02*
X790Y193D01*
X852Y193D02*
X890Y193D01*
X952Y193D02*
X990Y193D01*
X1052Y193D02*
X1090Y193D01*
X1152Y193D02*
X1190Y193D01*
X1252Y193D02*
X1290Y193D01*
X1352Y193D02*
X1390Y193D01*
X1452Y193D02*
X1490Y193D01*
X1552Y193D02*
X1590Y193D01*
X1652Y193D02*
X1690Y193D01*
X1752Y193D02*
X1790Y193D01*
X1852Y193D02*
X1890Y193D01*
X1952Y193D02*
X1990Y193D01*
X2052Y193D02*
X2090Y193D01*
X2152Y193D02*
X2190Y193D01*
X2252Y193D02*
X2290Y193D01*
X2352Y193D02*
X2390Y193D01*
X2452Y193D02*
X2490Y193D01*
X2552Y193D02*
X2590Y193D01*
X2652Y193D02*
X2690Y193D01*
X2752Y193D02*
X2790Y193D01*
X2852Y193D02*
X2890Y193D01*
X2952Y193D02*
X2990Y193D01*
X3052Y193D02*
X3090Y193D01*
X3152Y193D02*
X3190Y193D01*
X3252Y193D02*
X3296Y193D01*
X245Y192D02*
X290Y192D01*
X352Y192D02*
X390Y192D01*
X452Y192D02*
X490Y192D01*
X552Y192D02*
X590Y192D01*
X652Y192D02*
X690Y192D01*
X752Y192D02*
X790Y192D01*
X852Y192D02*
X890Y192D01*
X952Y192D02*
X990Y192D01*
X1052Y192D02*
X1090Y192D01*
X1152Y192D02*
X1190Y192D01*
X1252Y192D02*
X1290Y192D01*
X1352Y192D02*
X1390Y192D01*
X1452Y192D02*
X1490Y192D01*
X1552Y192D02*
X1590Y192D01*
X1652Y192D02*
X1690Y192D01*
X1752Y192D02*
X1790Y192D01*
X1852Y192D02*
X1890Y192D01*
X1952Y192D02*
X1990Y192D01*
X2052Y192D02*
X2090Y192D01*
X2152Y192D02*
X2190Y192D01*
X2252Y192D02*
X2290Y192D01*
X2352Y192D02*
X2390Y192D01*
X2452Y192D02*
X2490Y192D01*
X2552Y192D02*
X2590Y192D01*
X2652Y192D02*
X2690Y192D01*
X2752Y192D02*
X2790Y192D01*
X2852Y192D02*
X2890Y192D01*
X2952Y192D02*
X2990Y192D01*
X3052Y192D02*
X3090Y192D01*
X3152Y192D02*
X3190Y192D01*
X3252Y192D02*
X3296Y192D01*
X245Y191D02*
X290Y191D01*
X352Y191D02*
X390Y191D01*
X452Y191D02*
X490Y191D01*
X552Y191D02*
X590Y191D01*
X652Y191D02*
X690Y191D01*
X752Y191D02*
X790Y191D01*
X852Y191D02*
X890Y191D01*
X952Y191D02*
X990Y191D01*
X1052Y191D02*
X1090Y191D01*
X1152Y191D02*
X1190Y191D01*
X1252Y191D02*
X1290Y191D01*
X1352Y191D02*
X1390Y191D01*
X1452Y191D02*
X1490Y191D01*
X1552Y191D02*
X1590Y191D01*
X1652Y191D02*
X1690Y191D01*
X1752Y191D02*
X1790Y191D01*
X1852Y191D02*
X1890Y191D01*
X1952Y191D02*
X1990Y191D01*
X2052Y191D02*
X2090Y191D01*
X2152Y191D02*
X2190Y191D01*
X2252Y191D02*
X2290Y191D01*
X2352Y191D02*
X2390Y191D01*
X2452Y191D02*
X2490Y191D01*
X2552Y191D02*
X2590Y191D01*
X2652Y191D02*
X2690Y191D01*
X2752Y191D02*
X2790Y191D01*
X2852Y191D02*
X2890Y191D01*
X2952Y191D02*
X2990Y191D01*
X3052Y191D02*
X3090Y191D01*
X3152Y191D02*
X3190Y191D01*
X3252Y191D02*
X3296Y191D01*
X245Y190D02*
X290Y190D01*
X352Y190D02*
X390Y190D01*
X452Y190D02*
X490Y190D01*
X552Y190D02*
X590Y190D01*
X652Y190D02*
X690Y190D01*
X752Y190D02*
X790Y190D01*
X852Y190D02*
X890Y190D01*
X952Y190D02*
X990Y190D01*
X1052Y190D02*
X1090Y190D01*
X1152Y190D02*
X1190Y190D01*
X1252Y190D02*
X1290Y190D01*
X1352Y190D02*
X1390Y190D01*
X1452Y190D02*
X1490Y190D01*
X1552Y190D02*
X1590Y190D01*
X1652Y190D02*
X1690Y190D01*
X1752Y190D02*
X1790Y190D01*
X1852Y190D02*
X1890Y190D01*
X1952Y190D02*
X1990Y190D01*
X2052Y190D02*
X2090Y190D01*
X2152Y190D02*
X2190Y190D01*
X2252Y190D02*
X2290Y190D01*
X2352Y190D02*
X2390Y190D01*
X2452Y190D02*
X2490Y190D01*
X2552Y190D02*
X2590Y190D01*
X2652Y190D02*
X2690Y190D01*
X2752Y190D02*
X2790Y190D01*
X2852Y190D02*
X2890Y190D01*
X2952Y190D02*
X2990Y190D01*
X3052Y190D02*
X3090Y190D01*
X3152Y190D02*
X3190Y190D01*
X3252Y190D02*
X3296Y190D01*
X245Y189D02*
X248Y189D01*
X3293Y189D02*
X3296Y189D01*
X245Y188D02*
X248Y188D01*
X3293Y188D02*
X3296Y188D01*
X245Y187D02*
X248Y187D01*
X3293Y187D02*
X3296Y187D01*
X245Y186D02*
X248Y186D01*
X3293Y186D02*
X3296Y186D01*
X245Y185D02*
X248Y185D01*
X3293Y185D02*
X3296Y185D01*
X245Y184D02*
X248Y184D01*
X3293Y184D02*
X3296Y184D01*
X245Y183D02*
X248Y183D01*
X3293Y183D02*
X3296Y183D01*
X245Y182D02*
X248Y182D01*
X3293Y182D02*
X3296Y182D01*
X245Y181D02*
X248Y181D01*
X3293Y181D02*
X3296Y181D01*
X245Y180D02*
X248Y180D01*
X3293Y180D02*
X3296Y180D01*
X245Y179D02*
X248Y179D01*
X3293Y179D02*
X3296Y179D01*
X245Y178D02*
X248Y178D01*
X3293Y178D02*
X3296Y178D01*
X245Y177D02*
X248Y177D01*
X3293Y177D02*
X3296Y177D01*
X245Y176D02*
X248Y176D01*
X3293Y176D02*
X3296Y176D01*
X245Y175D02*
X248Y175D01*
X3293Y175D02*
X3296Y175D01*
X245Y174D02*
X248Y174D01*
X3293Y174D02*
X3296Y174D01*
X245Y173D02*
X248Y173D01*
X3293Y173D02*
X3296Y173D01*
X245Y172D02*
X248Y172D01*
X3293Y172D02*
X3296Y172D01*
X245Y171D02*
X248Y171D01*
X3293Y171D02*
X3296Y171D01*
X245Y170D02*
X248Y170D01*
X3293Y170D02*
X3296Y170D01*
X245Y169D02*
X248Y169D01*
X3293Y169D02*
X3296Y169D01*
X245Y168D02*
X248Y168D01*
X3293Y168D02*
X3296Y168D01*
X245Y167D02*
X248Y167D01*
X3293Y167D02*
X3296Y167D01*
X245Y166D02*
X248Y166D01*
X3293Y166D02*
X3296Y166D01*
X245Y165D02*
X248Y165D01*
X3293Y165D02*
X3296Y165D01*
X245Y164D02*
X248Y164D01*
X3293Y164D02*
X3296Y164D01*
X245Y163D02*
X248Y163D01*
X3293Y163D02*
X3296Y163D01*
X245Y162D02*
X248Y162D01*
X3293Y162D02*
X3296Y162D01*
X245Y161D02*
X248Y161D01*
X3293Y161D02*
X3296Y161D01*
X245Y160D02*
X248Y160D01*
X3293Y160D02*
X3296Y160D01*
X245Y159D02*
X248Y159D01*
X3293Y159D02*
X3296Y159D01*
X245Y158D02*
X248Y158D01*
X3293Y158D02*
X3296Y158D01*
X245Y157D02*
X248Y157D01*
X3293Y157D02*
X3296Y157D01*
X245Y156D02*
X248Y156D01*
X3293Y156D02*
X3296Y156D01*
X245Y155D02*
X248Y155D01*
X3293Y155D02*
X3296Y155D01*
X245Y154D02*
X248Y154D01*
X3293Y154D02*
X3296Y154D01*
X245Y153D02*
X248Y153D01*
X3293Y153D02*
X3296Y153D01*
X245Y152D02*
X248Y152D01*
X3293Y152D02*
X3296Y152D01*
X245Y151D02*
X248Y151D01*
X3293Y151D02*
X3296Y151D01*
X245Y150D02*
X248Y150D01*
X3293Y150D02*
X3296Y150D01*
X245Y149D02*
X248Y149D01*
X3293Y149D02*
X3296Y149D01*
X245Y148D02*
X248Y148D01*
X3293Y148D02*
X3296Y148D01*
X245Y147D02*
X248Y147D01*
X3293Y147D02*
X3296Y147D01*
X245Y146D02*
X248Y146D01*
X3293Y146D02*
X3296Y146D01*
X245Y145D02*
X248Y145D01*
X3293Y145D02*
X3296Y145D01*
X245Y144D02*
X248Y144D01*
X3293Y144D02*
X3296Y144D01*
X245Y143D02*
X248Y143D01*
X3293Y143D02*
X3296Y143D01*
X245Y142D02*
X248Y142D01*
X3293Y142D02*
X3296Y142D01*
X245Y141D02*
X248Y141D01*
X3293Y141D02*
X3296Y141D01*
X245Y140D02*
X248Y140D01*
X3293Y140D02*
X3296Y140D01*
X245Y139D02*
X248Y139D01*
X3293Y139D02*
X3296Y139D01*
X245Y138D02*
X248Y138D01*
X3293Y138D02*
X3296Y138D01*
X245Y137D02*
X248Y137D01*
X3293Y137D02*
X3296Y137D01*
X245Y136D02*
X248Y136D01*
X3293Y136D02*
X3296Y136D01*
X245Y135D02*
X248Y135D01*
X3293Y135D02*
X3296Y135D01*
X245Y134D02*
X248Y134D01*
X3293Y134D02*
X3296Y134D01*
X245Y133D02*
X248Y133D01*
X3293Y133D02*
X3296Y133D01*
X245Y132D02*
X248Y132D01*
X3293Y132D02*
X3296Y132D01*
X245Y131D02*
X248Y131D01*
X3293Y131D02*
X3296Y131D01*
X245Y130D02*
X248Y130D01*
X3293Y130D02*
X3296Y130D01*
X245Y129D02*
X248Y129D01*
X3293Y129D02*
X3296Y129D01*
X245Y128D02*
X248Y128D01*
X3293Y128D02*
X3296Y128D01*
X245Y127D02*
X248Y127D01*
X3293Y127D02*
X3296Y127D01*
X245Y126D02*
X248Y126D01*
X3293Y126D02*
X3296Y126D01*
X245Y125D02*
X248Y125D01*
X3293Y125D02*
X3296Y125D01*
X245Y124D02*
X248Y124D01*
X3293Y124D02*
X3296Y124D01*
X245Y123D02*
X248Y123D01*
X3293Y123D02*
X3296Y123D01*
X245Y122D02*
X248Y122D01*
X3293Y122D02*
X3296Y122D01*
X245Y121D02*
X248Y121D01*
X3293Y121D02*
X3296Y121D01*
X245Y120D02*
X248Y120D01*
X3293Y120D02*
X3296Y120D01*
X245Y119D02*
X248Y119D01*
X3293Y119D02*
X3296Y119D01*
X245Y118D02*
X248Y118D01*
X3293Y118D02*
X3296Y118D01*
X245Y117D02*
X248Y117D01*
X3293Y117D02*
X3296Y117D01*
X245Y116D02*
X248Y116D01*
X3293Y116D02*
X3296Y116D01*
X245Y115D02*
X248Y115D01*
X3293Y115D02*
X3296Y115D01*
X245Y114D02*
X248Y114D01*
X3293Y114D02*
X3296Y114D01*
X245Y113D02*
X248Y113D01*
X3293Y113D02*
X3296Y113D01*
X245Y112D02*
X248Y112D01*
X3293Y112D02*
X3296Y112D01*
X245Y111D02*
X248Y111D01*
X3293Y111D02*
X3296Y111D01*
X245Y110D02*
X248Y110D01*
X3293Y110D02*
X3296Y110D01*
X245Y109D02*
X248Y109D01*
X3293Y109D02*
X3296Y109D01*
X245Y108D02*
X248Y108D01*
X3293Y108D02*
X3296Y108D01*
X245Y107D02*
X248Y107D01*
X3293Y107D02*
X3296Y107D01*
X245Y106D02*
X248Y106D01*
X3293Y106D02*
X3296Y106D01*
X245Y105D02*
X248Y105D01*
X3293Y105D02*
X3296Y105D01*
X245Y104D02*
X248Y104D01*
X3293Y104D02*
X3296Y104D01*
X245Y103D02*
X248Y103D01*
X3293Y103D02*
X3296Y103D01*
X245Y102D02*
X248Y102D01*
X3293Y102D02*
X3296Y102D01*
X245Y101D02*
X248Y101D01*
X3293Y101D02*
X3296Y101D01*
X245Y100D02*
X248Y100D01*
X3293Y100D02*
X3296Y100D01*
X245Y99D02*
X248Y99D01*
X3293Y99D02*
X3296Y99D01*
X245Y98D02*
X248Y98D01*
X3293Y98D02*
X3296Y98D01*
X245Y97D02*
X248Y97D01*
X3293Y97D02*
X3296Y97D01*
X245Y96D02*
X248Y96D01*
X3293Y96D02*
X3296Y96D01*
X245Y95D02*
X248Y95D01*
X3293Y95D02*
X3296Y95D01*
X245Y94D02*
X248Y94D01*
X3293Y94D02*
X3296Y94D01*
X245Y93D02*
X248Y93D01*
X3293Y93D02*
X3296Y93D01*
X245Y92D02*
X248Y92D01*
X3293Y92D02*
X3296Y92D01*
X245Y91D02*
X290Y91D01*
X352Y91D02*
X390Y91D01*
X452Y91D02*
X490Y91D01*
X552Y91D02*
X590Y91D01*
X652Y91D02*
X690Y91D01*
X752Y91D02*
X790Y91D01*
X852Y91D02*
X890Y91D01*
X952Y91D02*
X990Y91D01*
X1052Y91D02*
X1090Y91D01*
X1152Y91D02*
X1190Y91D01*
X1252Y91D02*
X1290Y91D01*
X1352Y91D02*
X1390Y91D01*
X1452Y91D02*
X1490Y91D01*
X1552Y91D02*
X1590Y91D01*
X1652Y91D02*
X1690Y91D01*
X1752Y91D02*
X1790Y91D01*
X1852Y91D02*
X1890Y91D01*
X1952Y91D02*
X1990Y91D01*
X2052Y91D02*
X2090Y91D01*
X2152Y91D02*
X2190Y91D01*
X2252Y91D02*
X2290Y91D01*
X2352Y91D02*
X2390Y91D01*
X2452Y91D02*
X2490Y91D01*
X2552Y91D02*
X2590Y91D01*
X2652Y91D02*
X2690Y91D01*
X2752Y91D02*
X2790Y91D01*
X2852Y91D02*
X2890Y91D01*
X2952Y91D02*
X2990Y91D01*
X3052Y91D02*
X3090Y91D01*
X3152Y91D02*
X3190Y91D01*
X3252Y91D02*
X3296Y91D01*
X245Y90D02*
X290Y90D01*
X352Y90D02*
X390Y90D01*
X452Y90D02*
X490Y90D01*
X552Y90D02*
X590Y90D01*
X652Y90D02*
X690Y90D01*
X752Y90D02*
X790Y90D01*
X852Y90D02*
X890Y90D01*
X952Y90D02*
X990Y90D01*
X1052Y90D02*
X1090Y90D01*
X1152Y90D02*
X1190Y90D01*
X1252Y90D02*
X1290Y90D01*
X1352Y90D02*
X1390Y90D01*
X1452Y90D02*
X1490Y90D01*
X1552Y90D02*
X1590Y90D01*
X1652Y90D02*
X1690Y90D01*
X1752Y90D02*
X1790Y90D01*
X1852Y90D02*
X1890Y90D01*
X1952Y90D02*
X1990Y90D01*
X2052Y90D02*
X2090Y90D01*
X2152Y90D02*
X2190Y90D01*
X2252Y90D02*
X2290Y90D01*
X2352Y90D02*
X2390Y90D01*
X2452Y90D02*
X2490Y90D01*
X2552Y90D02*
X2590Y90D01*
X2652Y90D02*
X2690Y90D01*
X2752Y90D02*
X2790Y90D01*
X2852Y90D02*
X2890Y90D01*
X2952Y90D02*
X2990Y90D01*
X3052Y90D02*
X3090Y90D01*
X3152Y90D02*
X3190Y90D01*
X3252Y90D02*
X3296Y90D01*
X245Y89D02*
X290Y89D01*
X352Y89D02*
X390Y89D01*
X452Y89D02*
X490Y89D01*
X552Y89D02*
X590Y89D01*
X652Y89D02*
X690Y89D01*
X752Y89D02*
X790Y89D01*
X852Y89D02*
X890Y89D01*
X952Y89D02*
X990Y89D01*
X1052Y89D02*
X1090Y89D01*
X1152Y89D02*
X1190Y89D01*
X1252Y89D02*
X1290Y89D01*
X1352Y89D02*
X1390Y89D01*
X1452Y89D02*
X1490Y89D01*
X1552Y89D02*
X1590Y89D01*
X1652Y89D02*
X1690Y89D01*
X1752Y89D02*
X1790Y89D01*
X1852Y89D02*
X1890Y89D01*
X1952Y89D02*
X1990Y89D01*
X2052Y89D02*
X2090Y89D01*
X2152Y89D02*
X2190Y89D01*
X2252Y89D02*
X2290Y89D01*
X2352Y89D02*
X2390Y89D01*
X2452Y89D02*
X2490Y89D01*
X2552Y89D02*
X2590Y89D01*
X2652Y89D02*
X2690Y89D01*
X2752Y89D02*
X2790Y89D01*
X2852Y89D02*
X2890Y89D01*
X2952Y89D02*
X2990Y89D01*
X3052Y89D02*
X3090Y89D01*
X3152Y89D02*
X3190Y89D01*
X3252Y89D02*
X3296Y89D01*
X245Y88D02*
X290Y88D01*
X352Y88D02*
X390Y88D01*
X452Y88D02*
X490Y88D01*
X552Y88D02*
X590Y88D01*
X652Y88D02*
X690Y88D01*
X752Y88D02*
X790Y88D01*
X852Y88D02*
X890Y88D01*
X952Y88D02*
X990Y88D01*
X1052Y88D02*
X1090Y88D01*
X1152Y88D02*
X1190Y88D01*
X1252Y88D02*
X1290Y88D01*
X1352Y88D02*
X1390Y88D01*
X1452Y88D02*
X1490Y88D01*
X1552Y88D02*
X1590Y88D01*
X1652Y88D02*
X1690Y88D01*
X1752Y88D02*
X1790Y88D01*
X1852Y88D02*
X1890Y88D01*
X1952Y88D02*
X1990Y88D01*
X2052Y88D02*
X2090Y88D01*
X2152Y88D02*
X2190Y88D01*
X2252Y88D02*
X2290Y88D01*
X2352Y88D02*
X2390Y88D01*
X2452Y88D02*
X2490Y88D01*
X2552Y88D02*
X2590Y88D01*
X2652Y88D02*
X2690Y88D01*
X2752Y88D02*
X2790Y88D01*
X2852Y88D02*
X2890Y88D01*
X2952Y88D02*
X2990Y88D01*
X3052Y88D02*
X3090Y88D01*
X3152Y88D02*
X3190Y88D01*
X3252Y88D02*
X3296Y88D01*
D02*
G04 End of Silk1*
M02*