; NON-PLATED HOLES START AT T1
; THROUGH (PLATED) HOLES START AT T100
M48
INCH
T100C0.038000
%
T100
X021214Y010362
X018214Y016362
X020214Y014362
X005214Y015362
X020214Y011362
X014214Y020362
X031214Y010362
X019214Y021362
X031214Y011362
X027214Y008362
X018214Y017362
X024214Y014362
X007214Y013362
X024214Y010362
X005214Y020362
X026214Y006362
X023214Y007362
X026214Y018362
X004214Y013362
X027214Y016362
X012214Y012362
X025214Y010362
X023214Y016362
X013214Y021362
X025214Y011362
X030214Y018362
X010214Y021362
X002214Y021362
X027214Y011362
X012214Y009362
X010214Y013362
X019214Y010362
X026214Y009362
X025214Y017362
X033214Y008362
X021214Y006362
X028214Y012362
X003214Y020362
X029214Y006362
X015214Y020362
X006214Y021362
X018214Y020362
X030214Y012362
X020214Y006362
X024214Y006362
X021214Y016362
X014214Y021362
X023214Y010362
X014214Y017362
X012214Y013362
X007214Y008362
X031214Y005362
X029214Y021362
X009214Y009362
X026214Y011362
X025214Y007362
X019214Y018362
X022214Y019362
X002214Y019362
X030214Y016362
X022214Y020362
X016214Y005362
X014214Y008362
X026214Y017362
X027214Y007362
X029214Y014362
X021214Y019362
X011214Y019362
X008214Y011362
X024214Y011362
X028214Y014362
X020214Y016362
X002214Y009362
X032214Y019362
X030214Y020362
X023214Y006362
X012214Y007362
X016214Y020362
X011214Y014362
X029214Y005362
X012214Y010362
X018214Y007362
X007214Y012362
X027214Y013362
X024214Y017362
X006214Y014362
X015214Y012362
X022214Y015362
X002214Y016362
X005214Y005362
X017214Y008362
X010214Y008362
X005214Y014362
X012214Y006362
X011214Y009362
X007214Y014362
X027214Y020362
X030214Y021362
X026214Y005362
X007214Y017362
X030214Y008362
X026214Y020362
X022214Y010362
X012214Y019362
X021214Y012362
X031214Y007362
X009214Y017362
X018214Y014362
X013214Y018362
X023214Y018362
X025214Y014362
X008214Y014362
X032214Y020362
X028214Y008362
X003214Y005362
X017214Y016362
X012214Y017362
X033214Y021362
X021214Y017362
X020214Y005362
X013214Y006362
X011214Y005362
X026214Y007362
X003214Y015362
X021214Y005362
X030214Y011362
X031214Y012362
X014214Y019362
X009214Y007362
X030214Y013362
X028214Y013362
X030214Y006362
X018214Y008362
X015214Y019362
X004214Y011362
X025214Y005362
X004214Y012362
X017214Y019362
X016214Y007362
X016214Y018362
X033214Y018362
X022214Y013362
X013214Y016362
X017214Y010362
X022214Y012362
X025214Y008362
X029214Y015362
X029214Y017362
X033214Y017362
X021214Y018362
X020214Y015362
X009214Y018362
X016214Y010362
X005214Y007362
X024214Y008362
X004214Y009362
X016214Y009362
X028214Y018362
X023214Y005362
X005214Y019362
X002214Y020362
X008214Y013362
X013214Y011362
X008214Y020362
X031214Y017362
X008214Y010362
X007214Y018362
X011214Y015362
X025214Y020362
X011214Y006362
X019214Y009362
X028214Y019362
X031214Y009362
X012214Y014362
X028214Y017362
X021214Y011362
X012214Y021362
X008214Y021362
X018214Y011362
X021214Y013362
X008214Y009362
X017214Y006362
X023214Y015362
X016214Y013362
X027214Y010362
X025214Y006362
X022214Y016362
X002214Y010362
X032214Y012362
X010214Y019362
X029214Y007362
X013214Y007362
X007214Y010362
X030214Y010362
X013214Y012362
X020214Y007362
X024214Y013362
X017214Y005362
X007214Y016362
X025214Y018362
X014214Y014362
X027214Y017362
X003214Y007362
X006214Y007362
X014214Y018362
X012214Y011362
X016214Y017362
X016214Y021362
X010214Y018362
X021214Y009362
X028214Y016362
X023214Y017362
X016214Y019362
X024214Y018362
X017214Y021362
X032214Y009362
X003214Y021362
X004214Y018362
X015214Y016362
X031214Y018362
X012214Y005362
X032214Y021362
X006214Y006362
X016214Y006362
X009214Y008362
X003214Y009362
X014214Y013362
X011214Y021362
X019214Y015362
X009214Y005362
X019214Y008362
X018214Y018362
X011214Y017362
X030214Y019362
X013214Y009362
X022214Y008362
X012214Y016362
X028214Y009362
X006214Y017362
X003214Y006362
X005214Y018362
X019214Y007362
X011214Y020362
X031214Y019362
X024214Y021362
X003214Y011362
X013214Y013362
X004214Y006362
X025214Y021362
X010214Y020362
X016214Y012362
X018214Y019362
X028214Y011362
X026214Y014362
X010214Y017362
X017214Y013362
X015214Y009362
X030214Y005362
X005214Y017362
X033214Y014362
X024214Y020362
X031214Y006362
X003214Y016362
X002214Y007362
X012214Y018362
X019214Y012362
X031214Y015362
X013214Y014362
X020214Y020362
X002214Y013362
X021214Y015362
X020214Y013362
X004214Y019362
X019214Y020362
X020214Y018362
X014214Y016362
X032214Y018362
X029214Y008362
X009214Y013362
X009214Y014362
X018214Y015362
X030214Y015362
X031214Y013362
X024214Y019362
X014214Y009362
X032214Y011362
X025214Y012362
X033214Y020362
X014214Y006362
X006214Y010362
X019214Y017362
X017214Y011362
X013214Y008362
X008214Y005362
X027214Y021362
X025214Y009362
X033214Y006362
X026214Y016362
X020214Y019362
X011214Y016362
X012214Y008362
X028214Y020362
X028214Y007362
X029214Y010362
X008214Y015362
X023214Y013362
X033214Y007362
X026214Y012362
X033214Y016362
X005214Y011362
X007214Y011362
X005214Y021362
X033214Y009362
X004214Y021362
X013214Y019362
X011214Y008362
X004214Y014362
X032214Y006362
X031214Y008362
X025214Y016362
X027214Y009362
X030214Y009362
X022214Y017362
X010214Y011362
X033214Y012362
X004214Y008362
X032214Y016362
X033214Y010362
X008214Y017362
X011214Y011362
X032214Y005362
X002214Y015362
X016214Y015362
X033214Y013362
X011214Y013362
X019214Y013362
X010214Y010362
X020214Y017362
X029214Y020362
X015214Y014362
X015214Y005362
X003214Y018362
X014214Y011362
X006214Y015362
X019214Y014362
X026214Y013362
X023214Y021362
X010214Y005362
X027214Y012362
X015214Y010362
X007214Y009362
X005214Y006362
X029214Y011362
X008214Y012362
X029214Y009362
X011214Y007362
X007214Y005362
X018214Y013362
X027214Y014362
X002214Y005362
X006214Y016362
X021214Y014362
X023214Y012362
X017214Y009362
X007214Y020362
X028214Y021362
X027214Y019362
X022214Y014362
X014214Y007362
X027214Y015362
X030214Y014362
X006214Y008362
X015214Y011362
X020214Y012362
X021214Y007362
X016214Y008362
X027214Y006362
X019214Y005362
X009214Y010362
X014214Y015362
X024214Y015362
X005214Y009362
X015214Y006362
X024214Y005362
X031214Y014362
X004214Y010362
X026214Y008362
X032214Y013362
X010214Y007362
X015214Y018362
X003214Y014362
X004214Y020362
X002214Y011362
X010214Y015362
X008214Y006362
X011214Y012362
X017214Y020362
X004214Y007362
X026214Y010362
X007214Y007362
X005214Y010362
X009214Y012362
X003214Y012362
X003214Y010362
X023214Y014362
X030214Y017362
X008214Y019362
X002214Y018362
X006214Y009362
X006214Y011362
X009214Y015362
X028214Y006362
X009214Y011362
X014214Y012362
X024214Y016362
X009214Y016362
X003214Y013362
X015214Y008362
X025214Y013362
X022214Y021362
X002214Y008362
X002214Y014362
X014214Y010362
X020214Y008362
X023214Y011362
X027214Y005362
X006214Y018362
X017214Y015362
X006214Y012362
X002214Y017362
X019214Y006362
X005214Y012362
X003214Y017362
X012214Y015362
X031214Y021362
X032214Y014362
X006214Y013362
X005214Y008362
X031214Y016362
X028214Y005362
X007214Y006362
X021214Y020362
X002214Y006362
X007214Y015362
X008214Y007362
X018214Y010362
X032214Y010362
X020214Y021362
X026214Y015362
X017214Y014362
X004214Y015362
X029214Y016362
X032214Y008362
X033214Y011362
X005214Y016362
X021214Y021362
X023214Y008362
X003214Y019362
X013214Y020362
X022214Y005362
X009214Y019362
X025214Y019362
X017214Y007362
X002214Y012362
X009214Y021362
X003214Y008362
X029214Y013362
X023214Y020362
X018214Y012362
X013214Y015362
X010214Y012362
X004214Y017362
X029214Y018362
X033214Y015362
X015214Y013362
X018214Y005362
X022214Y018362
X006214Y020362
X015214Y021362
X005214Y013362
X024214Y007362
X004214Y016362
X015214Y017362
X023214Y019362
X008214Y018362
X015214Y015362
X030214Y007362
X033214Y005362
X013214Y017362
X023214Y009362
X028214Y015362
X008214Y008362
X007214Y021362
X018214Y006362
X018214Y021362
X019214Y011362
X028214Y010362
X019214Y016362
X017214Y017362
X010214Y014362
X013214Y005362
X016214Y011362
X024214Y009362
X022214Y011362
X012214Y020362
X004214Y005362
X031214Y020362
X026214Y021362
X008214Y016362
X027214Y018362
X016214Y014362
X013214Y010362
X010214Y009362
X032214Y017362
X009214Y006362
X017214Y012362
X026214Y019362
X006214Y019362
X011214Y010362
X029214Y019362
X010214Y006362
X022214Y009362
X020214Y009362
X032214Y007362
X020214Y010362
X010214Y016362
X022214Y007362
X021214Y008362
X025214Y015362
X022214Y006362
X015214Y007362
X032214Y015362
X029214Y012362
X033214Y019362
X007214Y019362
X014214Y005362
X009214Y020362
X016214Y016362
X019214Y019362
X018214Y009362
X011214Y018362
X017214Y018362
X006214Y005362
X024214Y012362
T00
M30
