G04 MADE WITH FRITZING*
G04 WWW.FRITZING.ORG*
G04 DOUBLE SIDED*
G04 HOLES PLATED*
G04 CONTOUR ON CENTER OF CONTOUR VECTOR*
%ASAXBY*%
%FSLAX23Y23*%
%MOIN*%
%OFA0B0*%
%SFA1.0B1.0*%
%ADD10R,0.001000X0.001000*%
%LNSILK0*%
G90*
G70*
G54D10*
X3211Y391D02*
X3237Y391D01*
X3262Y391D02*
X3263Y391D01*
X3209Y390D02*
X3238Y390D01*
X3260Y390D02*
X3264Y390D01*
X3208Y389D02*
X3239Y389D01*
X3260Y389D02*
X3265Y389D01*
X3207Y388D02*
X3239Y388D01*
X3259Y388D02*
X3265Y388D01*
X3206Y387D02*
X3239Y387D01*
X3259Y387D02*
X3265Y387D01*
X3206Y386D02*
X3239Y386D01*
X3259Y386D02*
X3265Y386D01*
X3206Y385D02*
X3238Y385D01*
X3259Y385D02*
X3265Y385D01*
X3206Y384D02*
X3212Y384D01*
X3259Y384D02*
X3265Y384D01*
X3206Y383D02*
X3212Y383D01*
X3259Y383D02*
X3265Y383D01*
X3206Y382D02*
X3212Y382D01*
X3259Y382D02*
X3265Y382D01*
X3206Y381D02*
X3212Y381D01*
X3259Y381D02*
X3265Y381D01*
X3206Y380D02*
X3212Y380D01*
X3259Y380D02*
X3265Y380D01*
X3206Y379D02*
X3212Y379D01*
X3259Y379D02*
X3265Y379D01*
X3206Y378D02*
X3212Y378D01*
X3259Y378D02*
X3265Y378D01*
X3206Y377D02*
X3212Y377D01*
X3259Y377D02*
X3265Y377D01*
X3206Y376D02*
X3212Y376D01*
X3259Y376D02*
X3265Y376D01*
X3206Y375D02*
X3212Y375D01*
X3259Y375D02*
X3265Y375D01*
X3206Y374D02*
X3212Y374D01*
X3259Y374D02*
X3265Y374D01*
X3206Y373D02*
X3212Y373D01*
X3259Y373D02*
X3265Y373D01*
X3206Y372D02*
X3212Y372D01*
X3259Y372D02*
X3265Y372D01*
X3206Y371D02*
X3212Y371D01*
X3259Y371D02*
X3265Y371D01*
X3206Y370D02*
X3212Y370D01*
X3259Y370D02*
X3265Y370D01*
X3206Y369D02*
X3213Y369D01*
X3259Y369D02*
X3265Y369D01*
X3206Y368D02*
X3214Y368D01*
X3259Y368D02*
X3265Y368D01*
X3207Y367D02*
X3231Y367D01*
X3259Y367D02*
X3265Y367D01*
X3207Y366D02*
X3232Y366D01*
X3259Y366D02*
X3265Y366D01*
X3208Y365D02*
X3232Y365D01*
X3259Y365D02*
X3265Y365D01*
X3208Y364D02*
X3232Y364D01*
X3259Y364D02*
X3265Y364D01*
X3208Y363D02*
X3232Y363D01*
X3259Y363D02*
X3265Y363D01*
X3207Y362D02*
X3232Y362D01*
X3259Y362D02*
X3265Y362D01*
X3207Y361D02*
X3230Y361D01*
X3259Y361D02*
X3265Y361D01*
X3281Y361D02*
X3285Y361D01*
X3206Y360D02*
X3213Y360D01*
X3259Y360D02*
X3265Y360D01*
X3280Y360D02*
X3285Y360D01*
X3206Y359D02*
X3212Y359D01*
X3259Y359D02*
X3265Y359D01*
X3280Y359D02*
X3286Y359D01*
X3206Y358D02*
X3212Y358D01*
X3259Y358D02*
X3265Y358D01*
X3280Y358D02*
X3286Y358D01*
X3206Y357D02*
X3212Y357D01*
X3259Y357D02*
X3265Y357D01*
X3280Y357D02*
X3286Y357D01*
X3206Y356D02*
X3212Y356D01*
X3259Y356D02*
X3265Y356D01*
X3280Y356D02*
X3286Y356D01*
X3206Y355D02*
X3212Y355D01*
X3259Y355D02*
X3265Y355D01*
X3280Y355D02*
X3286Y355D01*
X3206Y354D02*
X3212Y354D01*
X3259Y354D02*
X3265Y354D01*
X3280Y354D02*
X3286Y354D01*
X3206Y353D02*
X3212Y353D01*
X3259Y353D02*
X3265Y353D01*
X3280Y353D02*
X3286Y353D01*
X3206Y352D02*
X3212Y352D01*
X3259Y352D02*
X3265Y352D01*
X3280Y352D02*
X3286Y352D01*
X3206Y351D02*
X3212Y351D01*
X3259Y351D02*
X3265Y351D01*
X3280Y351D02*
X3286Y351D01*
X3206Y350D02*
X3212Y350D01*
X3259Y350D02*
X3265Y350D01*
X3280Y350D02*
X3286Y350D01*
X3206Y349D02*
X3212Y349D01*
X3259Y349D02*
X3265Y349D01*
X3280Y349D02*
X3286Y349D01*
X3206Y348D02*
X3212Y348D01*
X3259Y348D02*
X3265Y348D01*
X3280Y348D02*
X3286Y348D01*
X3206Y347D02*
X3212Y347D01*
X3259Y347D02*
X3265Y347D01*
X3280Y347D02*
X3286Y347D01*
X3206Y346D02*
X3212Y346D01*
X3259Y346D02*
X3266Y346D01*
X3280Y346D02*
X3286Y346D01*
X3206Y345D02*
X3212Y345D01*
X3260Y345D02*
X3267Y345D01*
X3279Y345D02*
X3286Y345D01*
X3206Y344D02*
X3236Y344D01*
X3260Y344D02*
X3285Y344D01*
X3206Y343D02*
X3238Y343D01*
X3260Y343D02*
X3285Y343D01*
X3206Y342D02*
X3239Y342D01*
X3261Y342D02*
X3284Y342D01*
X3207Y341D02*
X3239Y341D01*
X3262Y341D02*
X3284Y341D01*
X3207Y340D02*
X3239Y340D01*
X3263Y340D02*
X3283Y340D01*
X3208Y339D02*
X3239Y339D01*
X3264Y339D02*
X3281Y339D01*
X3209Y338D02*
X3238Y338D01*
X3266Y338D02*
X3280Y338D01*
X245Y193D02*
X290Y193D01*
X352Y193D02*
X390Y193D01*
X452Y193D02*
X490Y193D01*
X552Y193D02*
X590Y193D01*
X652Y193D02*
X690Y193D01*
X752Y193D02*
X790Y193D01*
X852Y193D02*
X890Y193D01*
X952Y193D02*
X990Y193D01*
X1052Y193D02*
X1090Y193D01*
X1152Y193D02*
X1190Y193D01*
X1252Y193D02*
X1290Y193D01*
X1352Y193D02*
X1390Y193D01*
X1452Y193D02*
X1490Y193D01*
X1552Y193D02*
X1590Y193D01*
X1652Y193D02*
X1690Y193D01*
X1752Y193D02*
X1790Y193D01*
X1852Y193D02*
X1890Y193D01*
X1952Y193D02*
X1990Y193D01*
X2052Y193D02*
X2090Y193D01*
X2152Y193D02*
X2190Y193D01*
X2252Y193D02*
X2290Y193D01*
X2352Y193D02*
X2390Y193D01*
X2452Y193D02*
X2490Y193D01*
X2552Y193D02*
X2590Y193D01*
X2652Y193D02*
X2690Y193D01*
X2752Y193D02*
X2790Y193D01*
X2852Y193D02*
X2890Y193D01*
X2952Y193D02*
X2990Y193D01*
X3052Y193D02*
X3090Y193D01*
X3152Y193D02*
X3190Y193D01*
X3252Y193D02*
X3297Y193D01*
X245Y192D02*
X290Y192D01*
X352Y192D02*
X390Y192D01*
X452Y192D02*
X490Y192D01*
X552Y192D02*
X590Y192D01*
X652Y192D02*
X690Y192D01*
X752Y192D02*
X790Y192D01*
X852Y192D02*
X890Y192D01*
X952Y192D02*
X990Y192D01*
X1052Y192D02*
X1090Y192D01*
X1152Y192D02*
X1190Y192D01*
X1252Y192D02*
X1290Y192D01*
X1352Y192D02*
X1390Y192D01*
X1452Y192D02*
X1490Y192D01*
X1552Y192D02*
X1590Y192D01*
X1652Y192D02*
X1690Y192D01*
X1752Y192D02*
X1790Y192D01*
X1852Y192D02*
X1890Y192D01*
X1952Y192D02*
X1990Y192D01*
X2052Y192D02*
X2090Y192D01*
X2152Y192D02*
X2190Y192D01*
X2252Y192D02*
X2290Y192D01*
X2352Y192D02*
X2390Y192D01*
X2452Y192D02*
X2490Y192D01*
X2552Y192D02*
X2590Y192D01*
X2652Y192D02*
X2690Y192D01*
X2752Y192D02*
X2790Y192D01*
X2852Y192D02*
X2890Y192D01*
X2952Y192D02*
X2990Y192D01*
X3052Y192D02*
X3090Y192D01*
X3152Y192D02*
X3190Y192D01*
X3252Y192D02*
X3297Y192D01*
X245Y191D02*
X290Y191D01*
X352Y191D02*
X390Y191D01*
X452Y191D02*
X490Y191D01*
X552Y191D02*
X590Y191D01*
X652Y191D02*
X690Y191D01*
X752Y191D02*
X790Y191D01*
X852Y191D02*
X890Y191D01*
X952Y191D02*
X990Y191D01*
X1052Y191D02*
X1090Y191D01*
X1152Y191D02*
X1190Y191D01*
X1252Y191D02*
X1290Y191D01*
X1352Y191D02*
X1390Y191D01*
X1452Y191D02*
X1490Y191D01*
X1552Y191D02*
X1590Y191D01*
X1652Y191D02*
X1690Y191D01*
X1752Y191D02*
X1790Y191D01*
X1852Y191D02*
X1890Y191D01*
X1952Y191D02*
X1990Y191D01*
X2052Y191D02*
X2090Y191D01*
X2152Y191D02*
X2190Y191D01*
X2252Y191D02*
X2290Y191D01*
X2352Y191D02*
X2390Y191D01*
X2452Y191D02*
X2490Y191D01*
X2552Y191D02*
X2590Y191D01*
X2652Y191D02*
X2690Y191D01*
X2752Y191D02*
X2790Y191D01*
X2852Y191D02*
X2890Y191D01*
X2952Y191D02*
X2990Y191D01*
X3052Y191D02*
X3090Y191D01*
X3152Y191D02*
X3190Y191D01*
X3252Y191D02*
X3297Y191D01*
X245Y190D02*
X290Y190D01*
X352Y190D02*
X390Y190D01*
X452Y190D02*
X490Y190D01*
X552Y190D02*
X590Y190D01*
X652Y190D02*
X690Y190D01*
X752Y190D02*
X790Y190D01*
X852Y190D02*
X890Y190D01*
X952Y190D02*
X990Y190D01*
X1052Y190D02*
X1090Y190D01*
X1152Y190D02*
X1190Y190D01*
X1252Y190D02*
X1290Y190D01*
X1352Y190D02*
X1390Y190D01*
X1452Y190D02*
X1490Y190D01*
X1552Y190D02*
X1590Y190D01*
X1652Y190D02*
X1690Y190D01*
X1752Y190D02*
X1790Y190D01*
X1852Y190D02*
X1890Y190D01*
X1952Y190D02*
X1990Y190D01*
X2052Y190D02*
X2090Y190D01*
X2152Y190D02*
X2190Y190D01*
X2252Y190D02*
X2290Y190D01*
X2352Y190D02*
X2390Y190D01*
X2452Y190D02*
X2490Y190D01*
X2552Y190D02*
X2590Y190D01*
X2652Y190D02*
X2690Y190D01*
X2752Y190D02*
X2790Y190D01*
X2852Y190D02*
X2890Y190D01*
X2952Y190D02*
X2990Y190D01*
X3052Y190D02*
X3090Y190D01*
X3152Y190D02*
X3190Y190D01*
X3252Y190D02*
X3297Y190D01*
X245Y189D02*
X248Y189D01*
X3294Y189D02*
X3297Y189D01*
X245Y188D02*
X248Y188D01*
X3294Y188D02*
X3297Y188D01*
X245Y187D02*
X248Y187D01*
X3294Y187D02*
X3297Y187D01*
X245Y186D02*
X248Y186D01*
X3294Y186D02*
X3297Y186D01*
X245Y185D02*
X248Y185D01*
X3294Y185D02*
X3297Y185D01*
X245Y184D02*
X248Y184D01*
X3294Y184D02*
X3297Y184D01*
X245Y183D02*
X248Y183D01*
X3294Y183D02*
X3297Y183D01*
X245Y182D02*
X248Y182D01*
X3294Y182D02*
X3297Y182D01*
X245Y181D02*
X248Y181D01*
X3294Y181D02*
X3297Y181D01*
X245Y180D02*
X248Y180D01*
X3294Y180D02*
X3297Y180D01*
X245Y179D02*
X248Y179D01*
X3294Y179D02*
X3297Y179D01*
X245Y178D02*
X248Y178D01*
X3294Y178D02*
X3297Y178D01*
X245Y177D02*
X248Y177D01*
X3294Y177D02*
X3297Y177D01*
X245Y176D02*
X248Y176D01*
X3294Y176D02*
X3297Y176D01*
X245Y175D02*
X248Y175D01*
X3294Y175D02*
X3297Y175D01*
X245Y174D02*
X248Y174D01*
X3294Y174D02*
X3297Y174D01*
X245Y173D02*
X248Y173D01*
X3294Y173D02*
X3297Y173D01*
X245Y172D02*
X248Y172D01*
X3294Y172D02*
X3297Y172D01*
X245Y171D02*
X248Y171D01*
X3294Y171D02*
X3297Y171D01*
X245Y170D02*
X248Y170D01*
X3294Y170D02*
X3297Y170D01*
X245Y169D02*
X248Y169D01*
X3294Y169D02*
X3297Y169D01*
X245Y168D02*
X248Y168D01*
X3294Y168D02*
X3297Y168D01*
X245Y167D02*
X248Y167D01*
X3294Y167D02*
X3297Y167D01*
X245Y166D02*
X248Y166D01*
X3294Y166D02*
X3297Y166D01*
X245Y165D02*
X248Y165D01*
X3294Y165D02*
X3297Y165D01*
X245Y164D02*
X248Y164D01*
X3294Y164D02*
X3297Y164D01*
X245Y163D02*
X248Y163D01*
X3294Y163D02*
X3297Y163D01*
X245Y162D02*
X248Y162D01*
X3294Y162D02*
X3297Y162D01*
X245Y161D02*
X248Y161D01*
X3294Y161D02*
X3297Y161D01*
X245Y160D02*
X248Y160D01*
X3294Y160D02*
X3297Y160D01*
X245Y159D02*
X248Y159D01*
X3294Y159D02*
X3297Y159D01*
X245Y158D02*
X248Y158D01*
X3294Y158D02*
X3297Y158D01*
X245Y157D02*
X248Y157D01*
X3294Y157D02*
X3297Y157D01*
X245Y156D02*
X248Y156D01*
X3294Y156D02*
X3297Y156D01*
X245Y155D02*
X248Y155D01*
X3294Y155D02*
X3297Y155D01*
X245Y154D02*
X248Y154D01*
X3294Y154D02*
X3297Y154D01*
X245Y153D02*
X248Y153D01*
X3294Y153D02*
X3297Y153D01*
X245Y152D02*
X248Y152D01*
X3294Y152D02*
X3297Y152D01*
X245Y151D02*
X248Y151D01*
X3294Y151D02*
X3297Y151D01*
X245Y150D02*
X248Y150D01*
X3294Y150D02*
X3297Y150D01*
X245Y149D02*
X248Y149D01*
X3294Y149D02*
X3297Y149D01*
X245Y148D02*
X248Y148D01*
X3294Y148D02*
X3297Y148D01*
X245Y147D02*
X248Y147D01*
X3294Y147D02*
X3297Y147D01*
X245Y146D02*
X248Y146D01*
X3294Y146D02*
X3297Y146D01*
X245Y145D02*
X248Y145D01*
X3294Y145D02*
X3297Y145D01*
X245Y144D02*
X248Y144D01*
X3294Y144D02*
X3297Y144D01*
X245Y143D02*
X248Y143D01*
X3294Y143D02*
X3297Y143D01*
X245Y142D02*
X248Y142D01*
X3294Y142D02*
X3297Y142D01*
X245Y141D02*
X248Y141D01*
X3294Y141D02*
X3297Y141D01*
X245Y140D02*
X248Y140D01*
X3294Y140D02*
X3297Y140D01*
X245Y139D02*
X248Y139D01*
X3294Y139D02*
X3297Y139D01*
X245Y138D02*
X248Y138D01*
X3294Y138D02*
X3297Y138D01*
X245Y137D02*
X248Y137D01*
X3294Y137D02*
X3297Y137D01*
X245Y136D02*
X248Y136D01*
X3294Y136D02*
X3297Y136D01*
X245Y135D02*
X248Y135D01*
X3294Y135D02*
X3297Y135D01*
X245Y134D02*
X248Y134D01*
X3294Y134D02*
X3297Y134D01*
X245Y133D02*
X248Y133D01*
X3294Y133D02*
X3297Y133D01*
X245Y132D02*
X248Y132D01*
X3294Y132D02*
X3297Y132D01*
X245Y131D02*
X248Y131D01*
X3294Y131D02*
X3297Y131D01*
X245Y130D02*
X248Y130D01*
X3294Y130D02*
X3297Y130D01*
X245Y129D02*
X248Y129D01*
X3294Y129D02*
X3297Y129D01*
X245Y128D02*
X248Y128D01*
X3294Y128D02*
X3297Y128D01*
X245Y127D02*
X248Y127D01*
X3294Y127D02*
X3297Y127D01*
X245Y126D02*
X248Y126D01*
X3294Y126D02*
X3297Y126D01*
X245Y125D02*
X248Y125D01*
X3294Y125D02*
X3297Y125D01*
X245Y124D02*
X248Y124D01*
X3294Y124D02*
X3297Y124D01*
X245Y123D02*
X248Y123D01*
X3294Y123D02*
X3297Y123D01*
X245Y122D02*
X248Y122D01*
X3294Y122D02*
X3297Y122D01*
X245Y121D02*
X248Y121D01*
X3294Y121D02*
X3297Y121D01*
X245Y120D02*
X248Y120D01*
X3294Y120D02*
X3297Y120D01*
X245Y119D02*
X248Y119D01*
X3294Y119D02*
X3297Y119D01*
X245Y118D02*
X248Y118D01*
X3294Y118D02*
X3297Y118D01*
X245Y117D02*
X248Y117D01*
X3294Y117D02*
X3297Y117D01*
X245Y116D02*
X248Y116D01*
X3294Y116D02*
X3297Y116D01*
X245Y115D02*
X248Y115D01*
X3294Y115D02*
X3297Y115D01*
X245Y114D02*
X248Y114D01*
X3294Y114D02*
X3297Y114D01*
X245Y113D02*
X248Y113D01*
X3294Y113D02*
X3297Y113D01*
X245Y112D02*
X248Y112D01*
X3294Y112D02*
X3297Y112D01*
X245Y111D02*
X248Y111D01*
X3294Y111D02*
X3297Y111D01*
X245Y110D02*
X248Y110D01*
X3294Y110D02*
X3297Y110D01*
X245Y109D02*
X248Y109D01*
X3294Y109D02*
X3297Y109D01*
X245Y108D02*
X248Y108D01*
X3294Y108D02*
X3297Y108D01*
X245Y107D02*
X248Y107D01*
X3294Y107D02*
X3297Y107D01*
X245Y106D02*
X248Y106D01*
X3294Y106D02*
X3297Y106D01*
X245Y105D02*
X248Y105D01*
X3294Y105D02*
X3297Y105D01*
X245Y104D02*
X248Y104D01*
X3294Y104D02*
X3297Y104D01*
X245Y103D02*
X248Y103D01*
X3294Y103D02*
X3297Y103D01*
X245Y102D02*
X248Y102D01*
X3294Y102D02*
X3297Y102D01*
X245Y101D02*
X248Y101D01*
X3294Y101D02*
X3297Y101D01*
X245Y100D02*
X248Y100D01*
X3294Y100D02*
X3297Y100D01*
X245Y99D02*
X248Y99D01*
X3294Y99D02*
X3297Y99D01*
X245Y98D02*
X248Y98D01*
X3294Y98D02*
X3297Y98D01*
X245Y97D02*
X248Y97D01*
X3294Y97D02*
X3297Y97D01*
X245Y96D02*
X248Y96D01*
X3294Y96D02*
X3297Y96D01*
X245Y95D02*
X248Y95D01*
X3294Y95D02*
X3297Y95D01*
X245Y94D02*
X248Y94D01*
X3294Y94D02*
X3297Y94D01*
X245Y93D02*
X248Y93D01*
X3294Y93D02*
X3297Y93D01*
X245Y92D02*
X249Y92D01*
X3294Y92D02*
X3297Y92D01*
X245Y91D02*
X290Y91D01*
X352Y91D02*
X390Y91D01*
X452Y91D02*
X490Y91D01*
X552Y91D02*
X590Y91D01*
X652Y91D02*
X690Y91D01*
X752Y91D02*
X790Y91D01*
X852Y91D02*
X890Y91D01*
X952Y91D02*
X990Y91D01*
X1052Y91D02*
X1090Y91D01*
X1152Y91D02*
X1190Y91D01*
X1252Y91D02*
X1290Y91D01*
X1352Y91D02*
X1390Y91D01*
X1452Y91D02*
X1490Y91D01*
X1552Y91D02*
X1590Y91D01*
X1652Y91D02*
X1690Y91D01*
X1752Y91D02*
X1790Y91D01*
X1852Y91D02*
X1890Y91D01*
X1952Y91D02*
X1990Y91D01*
X2052Y91D02*
X2090Y91D01*
X2152Y91D02*
X2190Y91D01*
X2252Y91D02*
X2290Y91D01*
X2352Y91D02*
X2390Y91D01*
X2452Y91D02*
X2490Y91D01*
X2552Y91D02*
X2590Y91D01*
X2652Y91D02*
X2690Y91D01*
X2752Y91D02*
X2790Y91D01*
X2852Y91D02*
X2890Y91D01*
X2952Y91D02*
X2990Y91D01*
X3052Y91D02*
X3090Y91D01*
X3152Y91D02*
X3190Y91D01*
X3252Y91D02*
X3297Y91D01*
X245Y90D02*
X290Y90D01*
X352Y90D02*
X390Y90D01*
X452Y90D02*
X490Y90D01*
X552Y90D02*
X590Y90D01*
X652Y90D02*
X690Y90D01*
X752Y90D02*
X790Y90D01*
X852Y90D02*
X890Y90D01*
X952Y90D02*
X990Y90D01*
X1052Y90D02*
X1090Y90D01*
X1152Y90D02*
X1190Y90D01*
X1252Y90D02*
X1290Y90D01*
X1352Y90D02*
X1390Y90D01*
X1452Y90D02*
X1490Y90D01*
X1552Y90D02*
X1590Y90D01*
X1652Y90D02*
X1690Y90D01*
X1752Y90D02*
X1790Y90D01*
X1852Y90D02*
X1890Y90D01*
X1952Y90D02*
X1990Y90D01*
X2052Y90D02*
X2090Y90D01*
X2152Y90D02*
X2190Y90D01*
X2252Y90D02*
X2290Y90D01*
X2352Y90D02*
X2390Y90D01*
X2452Y90D02*
X2490Y90D01*
X2552Y90D02*
X2590Y90D01*
X2652Y90D02*
X2690Y90D01*
X2752Y90D02*
X2790Y90D01*
X2852Y90D02*
X2890Y90D01*
X2952Y90D02*
X2990Y90D01*
X3052Y90D02*
X3090Y90D01*
X3152Y90D02*
X3190Y90D01*
X3252Y90D02*
X3297Y90D01*
X245Y89D02*
X290Y89D01*
X352Y89D02*
X390Y89D01*
X452Y89D02*
X490Y89D01*
X552Y89D02*
X590Y89D01*
X652Y89D02*
X690Y89D01*
X752Y89D02*
X790Y89D01*
X852Y89D02*
X890Y89D01*
X952Y89D02*
X990Y89D01*
X1052Y89D02*
X1090Y89D01*
X1152Y89D02*
X1190Y89D01*
X1252Y89D02*
X1290Y89D01*
X1352Y89D02*
X1390Y89D01*
X1452Y89D02*
X1490Y89D01*
X1552Y89D02*
X1590Y89D01*
X1652Y89D02*
X1690Y89D01*
X1752Y89D02*
X1790Y89D01*
X1852Y89D02*
X1890Y89D01*
X1952Y89D02*
X1990Y89D01*
X2052Y89D02*
X2090Y89D01*
X2152Y89D02*
X2190Y89D01*
X2252Y89D02*
X2290Y89D01*
X2352Y89D02*
X2390Y89D01*
X2452Y89D02*
X2490Y89D01*
X2552Y89D02*
X2590Y89D01*
X2652Y89D02*
X2690Y89D01*
X2752Y89D02*
X2790Y89D01*
X2852Y89D02*
X2890Y89D01*
X2952Y89D02*
X2990Y89D01*
X3052Y89D02*
X3090Y89D01*
X3152Y89D02*
X3190Y89D01*
X3252Y89D02*
X3297Y89D01*
X246Y88D02*
X290Y88D01*
X352Y88D02*
X390Y88D01*
X452Y88D02*
X490Y88D01*
X552Y88D02*
X590Y88D01*
X652Y88D02*
X690Y88D01*
X752Y88D02*
X790Y88D01*
X852Y88D02*
X890Y88D01*
X952Y88D02*
X990Y88D01*
X1052Y88D02*
X1090Y88D01*
X1152Y88D02*
X1190Y88D01*
X1252Y88D02*
X1290Y88D01*
X1352Y88D02*
X1390Y88D01*
X1452Y88D02*
X1490Y88D01*
X1552Y88D02*
X1590Y88D01*
X1652Y88D02*
X1690Y88D01*
X1752Y88D02*
X1790Y88D01*
X1852Y88D02*
X1890Y88D01*
X1952Y88D02*
X1990Y88D01*
X2052Y88D02*
X2090Y88D01*
X2152Y88D02*
X2190Y88D01*
X2252Y88D02*
X2290Y88D01*
X2352Y88D02*
X2390Y88D01*
X2452Y88D02*
X2490Y88D01*
X2552Y88D02*
X2590Y88D01*
X2652Y88D02*
X2690Y88D01*
X2752Y88D02*
X2790Y88D01*
X2852Y88D02*
X2890Y88D01*
X2952Y88D02*
X2990Y88D01*
X3052Y88D02*
X3090Y88D01*
X3152Y88D02*
X3190Y88D01*
X3252Y88D02*
X3297Y88D01*
D02*
G04 End of Silk0*
M02*